<svg xmlns="http://www.w3.org/2000/svg" width="40.985" height="39.986" viewBox="0 0 40.985 39.986">
  <g id="logo" transform="translate(-0.755 -0.755)">
    <path id="Path_1" data-name="Path 1" d="M8.562,1.634,16,9.073l7.438-7.439a3,3,0,0,1,4.243,0l2.685,2.685a3,3,0,0,1,0,4.243L22.927,16l7.439,7.438a3,3,0,0,1,0,4.243l-2.685,2.685a3,3,0,0,1-4.243,0L16,22.927,8.562,30.366a3,3,0,0,1-4.243,0L1.634,27.68a3,3,0,0,1,0-4.243L9.073,16,1.634,8.562a3,3,0,0,1,0-4.243L4.32,1.634a3,3,0,0,1,4.243,0Z" fill="#31c3bd" fill-rule="evenodd"/>
    <path id="Path_2" data-name="Path 2" d="M56.1,0A15.871,15.871,0,1,1,40.23,15.871,15.87,15.87,0,0,1,56.1,0Zm0,9.4a6.466,6.466,0,1,0,6.466,6.466A6.465,6.465,0,0,0,56.1,9.4Z" transform="translate(-30.23 9)" fill="#f2b137"/>
  </g>
</svg>
